<svg width="14" height="26" viewBox="0 0 14 26" fill="none" xmlns="http://www.w3.org/2000/svg">
<path d="M0.492041 14.1674H3.29647V25.4429C3.29647 25.6655 3.48115 25.8459 3.70911 25.8459H8.46413C8.69209 25.8459 8.87678 25.6655 8.87678 25.4429V14.2205H12.1007C12.3104 14.2205 12.4868 14.0669 12.5107 13.8636L13.0003 9.71252C13.0138 9.59833 12.9768 9.48394 12.8985 9.39824C12.8202 9.3125 12.7081 9.26341 12.5905 9.26341H8.87698V6.6613C8.87698 5.87693 9.30941 5.47915 10.1625 5.47915C10.2841 5.47915 12.5905 5.47915 12.5905 5.47915C12.8185 5.47915 13.0031 5.29869 13.0031 5.07615V1.26584C13.0031 1.04321 12.8185 0.86284 12.5905 0.86284H9.2443C9.22072 0.861718 9.1683 0.859863 9.09105 0.859863C8.51046 0.859863 6.49235 0.971178 4.89818 2.40343C3.13187 3.99063 3.37742 5.89098 3.43608 6.22048V9.26331H0.491992C0.264032 9.26331 0.0793457 9.44368 0.0793457 9.66631V13.7644C0.0793957 13.9869 0.264082 14.1674 0.492041 14.1674Z" fill="#EE0099"/>
</svg>
