<svg width="24" height="25" viewBox="0 0 24 25" fill="none" xmlns="http://www.w3.org/2000/svg">
<path d="M17.3704 0.998047H6.62059C2.97 0.998047 0 3.96819 0 7.61878V18.3686C0 22.0194 2.97 24.9894 6.62059 24.9894H17.3704C21.0213 24.9894 23.9913 22.0192 23.9913 18.3686V7.61878C23.9914 3.96819 21.0213 0.998047 17.3704 0.998047ZM21.8628 18.3686C21.8628 20.8456 19.8476 22.8607 17.3706 22.8607H6.62059C4.14372 22.8609 2.12862 20.8456 2.12862 18.3686V7.61878C2.12862 5.14191 4.14372 3.12667 6.62059 3.12667H17.3704C19.8474 3.12667 21.8627 5.14191 21.8627 7.61878V18.3686H21.8628Z" fill="#EE0099"/>
<path d="M11.9957 6.81201C8.58695 6.81201 5.81378 9.58518 5.81378 12.994C5.81378 16.4026 8.58695 19.1756 11.9957 19.1756C15.4045 19.1756 18.1777 16.4026 18.1777 12.994C18.1777 9.58518 15.4045 6.81201 11.9957 6.81201ZM11.9957 17.0469C9.76082 17.0469 7.94241 15.2287 7.94241 12.9938C7.94241 10.7588 9.76068 8.9405 11.9957 8.9405C14.2308 8.9405 16.0491 10.7588 16.0491 12.9938C16.0491 15.2287 14.2306 17.0469 11.9957 17.0469Z" fill="#EE0099"/>
<path d="M18.4369 5.00732C18.0268 5.00732 17.6239 5.17336 17.3343 5.46427C17.0432 5.75376 16.8759 6.15678 16.8759 6.56832C16.8759 6.97857 17.0434 7.38145 17.3343 7.67236C17.6238 7.96186 18.0268 8.12931 18.4369 8.12931C18.8484 8.12931 19.25 7.96186 19.541 7.67236C19.8319 7.38145 19.9979 6.97843 19.9979 6.56832C19.9979 6.15678 19.8319 5.75376 19.541 5.46427C19.2515 5.17336 18.8484 5.00732 18.4369 5.00732Z" fill="#EE0099"/>
</svg>
