<svg width="25" height="25" viewBox="0 0 25 25" fill="none" xmlns="http://www.w3.org/2000/svg">
<g clip-path="url(#clip0)">
<path d="M6.23694 8.62158H1.39393C1.17898 8.62158 1.00482 8.79582 1.00482 9.01069V24.5692C1.00482 24.7842 1.17898 24.9583 1.39393 24.9583H6.23694C6.45188 24.9583 6.62604 24.7842 6.62604 24.5692V9.01069C6.62604 8.79582 6.45188 8.62158 6.23694 8.62158Z" fill="#FF0095"/>
<path d="M3.81786 0.886719C2.05568 0.886719 0.62207 2.31878 0.62207 4.079C0.62207 5.84001 2.05568 7.27261 3.81786 7.27261C5.57863 7.27261 7.01107 5.83993 7.01107 4.079C7.01115 2.31878 5.57863 0.886719 3.81786 0.886719Z" fill="#FF0095"/>
<path d="M18.5564 8.23486C16.6113 8.23486 15.1734 9.07105 14.3013 10.0212V9.01066C14.3013 8.79579 14.1271 8.62155 13.9122 8.62155H9.27411C9.05917 8.62155 8.88501 8.79579 8.88501 9.01066V24.5692C8.88501 24.7841 9.05917 24.9583 9.27411 24.9583H14.1065C14.3215 24.9583 14.4957 24.7841 14.4957 24.5692V16.8713C14.4957 14.2773 15.2002 13.2667 17.0085 13.2667C18.9778 13.2667 19.1343 14.8868 19.1343 17.0048V24.5693C19.1343 24.7842 19.3085 24.9584 19.5234 24.9584H24.3576C24.5726 24.9584 24.7467 24.7842 24.7467 24.5693V16.0351C24.7467 12.178 24.0113 8.23486 18.5564 8.23486Z" fill="#FF0095"/>
</g>
<defs>
<clipPath id="clip0">
<rect width="24.1244" height="24.1244" fill="white" transform="translate(0.62207 0.859863)"/>
</clipPath>
</defs>
</svg>
