<svg width="32" height="26" viewBox="0 0 32 26" fill="none" xmlns="http://www.w3.org/2000/svg">
<path d="M31.2519 3.8161C30.1103 4.31776 28.8854 4.65798 27.5984 4.80987C28.9125 4.02946 29.9185 2.79162 30.3952 1.32116C29.1625 2.04388 27.8019 2.56866 26.3521 2.85314C25.1911 1.6249 23.5398 0.859863 21.7081 0.859863C18.1942 0.859863 15.345 3.68542 15.345 7.16835C15.345 7.66232 15.4012 8.14478 15.5098 8.60613C10.2224 8.34276 5.53385 5.83054 2.3959 2.01312C1.84737 2.94346 1.53532 4.0275 1.53532 5.18467C1.53532 7.37402 2.65949 9.30577 4.36513 10.436C3.32236 10.4014 2.34162 10.1169 1.48302 9.64404V9.72285C1.48302 12.7791 3.67708 15.3297 6.58631 15.9103C6.05329 16.0525 5.49123 16.1313 4.90976 16.1313C4.49888 16.1313 4.10154 16.0909 3.71195 16.014C4.52209 18.5224 6.87124 20.3465 9.65452 20.3966C7.4779 22.0881 4.73339 23.0933 1.75244 23.0933C1.23884 23.0933 0.732932 23.0626 0.234833 23.0068C3.05106 24.8002 6.39447 25.8459 9.9879 25.8459C21.6927 25.8459 28.0908 16.2313 28.0908 7.89302L28.0694 7.07612C29.3196 6.19187 30.401 5.08088 31.2519 3.8161Z" fill="#EE0099"/>
</svg>
