<svg width="17" height="19" viewBox="0 0 17 19" fill="none" xmlns="http://www.w3.org/2000/svg">
<path d="M4.45289 0.832535H1.09318V15H4.59457C6.82088 15 7.97452 13.8261 7.97452 11.6403V10.4867C7.97452 8.98895 7.50902 7.91627 6.3149 7.45076C7.30662 6.98526 7.75189 6.05426 7.75189 4.59703V4.09105C7.75189 1.90521 6.76016 0.832535 4.45289 0.832535ZM4.31122 8.62464C5.32318 8.62464 5.7482 9.02943 5.7482 10.345V11.5796C5.7482 12.632 5.34342 12.9761 4.59457 12.9761H3.31949V8.62464H4.31122ZM4.39217 2.85646C5.1815 2.85646 5.52557 3.30172 5.52557 4.31368V5.10301C5.52557 6.23641 5.01959 6.60072 4.18978 6.60072H3.31949V2.85646H4.39217ZM16.3046 15C16.082 14.4738 16.0618 13.9678 16.0618 13.2797V11.0938C16.0618 9.61636 15.6975 8.54368 14.5843 8.07818C15.576 7.61268 16.0415 6.66143 16.0415 5.20421V4.09105C16.0415 1.90521 15.0498 0.832535 12.7425 0.832535H9.38283V15H11.6091V9.23182H12.3782C13.3902 9.23182 13.8355 9.71756 13.8355 11.0331V13.2594C13.8355 14.4131 13.9164 14.6357 14.0379 15H16.3046ZM12.6818 2.85646C13.4712 2.85646 13.8152 3.30172 13.8152 4.31368V5.71019C13.8152 6.84359 13.3092 7.20789 12.4794 7.20789H11.6091V2.85646H12.6818Z" fill="white"/>
<path d="M0.283608 17.2263H16.7094V18.2383H0.283608V17.2263Z" fill="white"/>
</svg>
