<svg width="19" height="25" viewBox="0 0 19 25" fill="none" xmlns="http://www.w3.org/2000/svg">
<path d="M17.5892 10.9085H17.0948V7.71178C17.0948 3.45954 13.6354 0 9.38299 0C5.13076 0 1.67122 3.45954 1.67122 7.71178V10.9085H1.17702C0.527953 10.9085 0 11.4364 0 12.0853V23.8231C0 24.472 0.527953 25 1.17702 25H17.5892C18.238 25 18.7662 24.472 18.7662 23.8231V12.0853C18.7662 11.4364 18.238 10.9085 17.5892 10.9085ZM2.40364 7.71178C2.40364 3.86333 5.53454 0.73242 9.38299 0.73242C13.2314 0.73242 16.3623 3.86333 16.3623 7.71178V10.9085H14.9702V7.71178C14.9702 4.63103 12.4637 2.12478 9.38299 2.12478C6.30244 2.12478 3.796 4.63103 3.796 7.71178V10.9085H2.40364V7.71178ZM14.2378 10.9085H4.52842V7.71178C4.52842 5.03501 6.70622 2.8572 9.38299 2.8572C12.0599 2.8572 14.2378 5.03501 14.2378 7.71178V10.9085ZM17.5892 24.2675H1.17702C0.931929 24.2675 0.73242 24.068 0.73242 23.8229V20.1339H2.62947C2.83183 20.1339 2.99568 19.9701 2.99568 19.7677C2.99568 19.5655 2.83183 19.4015 2.62947 19.4015H0.73242V18.0261H2.62947C2.83183 18.0261 2.99568 17.8623 2.99568 17.6599C2.99568 17.4575 2.83183 17.2937 2.62947 17.2937H0.73242V15.9183H2.62947C2.83183 15.9183 2.99568 15.7543 2.99568 15.5521C2.99568 15.3497 2.83183 15.1859 2.62947 15.1859H0.73242V12.0853C0.73242 11.8402 0.931929 11.6407 1.17702 11.6407H17.5892C17.8342 11.6407 18.0338 11.8402 18.0338 12.0853V15.1859H16.1365C15.9343 15.1859 15.7703 15.3497 15.7703 15.5521C15.7703 15.7543 15.9343 15.9183 16.1365 15.9183H18.0338V17.2937H16.1365C15.9343 17.2937 15.7703 17.4575 15.7703 17.6599C15.7703 17.8623 15.9343 18.0261 16.1365 18.0261H18.0338V19.4015H16.1365C15.9343 19.4015 15.7703 19.5655 15.7703 19.7677C15.7703 19.9701 15.9343 20.1339 16.1365 20.1339H18.0338V23.8229C18.0338 24.068 17.8342 24.2675 17.5892 24.2675Z" fill="#00C3B0"/>
</svg>
